{
  "asset": {
    "version": "2.0",
    "generator": "Sketchup glTF Exporter v1.2.6 by Centaur"
  },
  "scene": 0,
  "scenes": [
    {
      "nodes": [
        0
      ]
    }
  ],
  "samplers": [
    {
    }
  ],
  "nodes": [
    {
      "name": "root",
      "children": [
        1,
        2,
        3,
        4,
        5
      ],
      "mesh": 5
    },
    {
      "name": "ske220",
      "mesh": 0
    },
    {
      "name": "ske220",
      "mesh": 1
    },
    {
      "name": "ske220",
      "mesh": 2
    },
    {
      "name": "ske220",
      "mesh": 3
    },
    {
      "name": "ske220",
      "mesh": 4
    }
  ],
  "materials": [
    {
      "pbrMetallicRoughness": {
        "baseColorTexture": {
          "index": 0
        },
        "metallicFactor": 0.1,
        "roughnessFactor": 0.9
      },
      "name": "Material2"
    },
    {
      "pbrMetallicRoughness": {
        "baseColorTexture": {
          "index": 1
        },
        "metallicFactor": 0.1,
        "roughnessFactor": 0.9
      },
      "name": "minaret-second-etage"
    },
    {
      "pbrMetallicRoughness": {
        "baseColorFactor": [
          0.4878,
          0.2428,
          0.001,
          1.0
        ],
        "metallicFactor": 0.1,
        "roughnessFactor": 0.9
      },
      "name": "<DarkGoldenrod>"
    },
    {
      "pbrMetallicRoughness": {
        "baseColorTexture": {
          "index": 2
        },
        "metallicFactor": 0.1,
        "roughnessFactor": 0.9
      },
      "name": "minaret-face-copie-2",
      "doubleSided": true
    },
    {
      "pbrMetallicRoughness": {
        "baseColorFactor": [
          0.2176,
          0.2176,
          0.2176,
          1.0
        ],
        "metallicFactor": 0.1,
        "roughnessFactor": 0.9
      },
      "name": "default material",
      "doubleSided": true
    },
    {
      "pbrMetallicRoughness": {
        "baseColorTexture": {
          "index": 3
        },
        "metallicFactor": 0.1,
        "roughnessFactor": 0.9
      },
      "name": "Material8"
    },
    {
      "pbrMetallicRoughness": {
        "baseColorTexture": {
          "index": 4
        },
        "metallicFactor": 0.1,
        "roughnessFactor": 0.9
      },
      "name": "interieur-3"
    },
    {
      "pbrMetallicRoughness": {
        "baseColorTexture": {
          "index": 5
        },
        "metallicFactor": 0.1,
        "roughnessFactor": 0.9
      },
      "name": "texture-mur-nord"
    },
    {
      "pbrMetallicRoughness": {
        "baseColorTexture": {
          "index": 6
        },
        "metallicFactor": 0.1,
        "roughnessFactor": 0.9
      },
      "name": "tour-sud-ouest-2"
    },
    {
      "pbrMetallicRoughness": {
        "baseColorTexture": {
          "index": 7
        },
        "metallicFactor": 0.1,
        "roughnessFactor": 0.9
      },
      "name": "bloc-sud-ouest-"
    },
    {
      "pbrMetallicRoughness": {
        "baseColorTexture": {
          "index": 8
        },
        "metallicFactor": 0.1,
        "roughnessFactor": 0.9
      },
      "name": "tour-sud-ouest"
    },
    {
      "pbrMetallicRoughness": {
        "baseColorTexture": {
          "index": 9
        },
        "metallicFactor": 0.1,
        "roughnessFactor": 0.9
      },
      "name": "Material5"
    },
    {
      "pbrMetallicRoughness": {
        "baseColorTexture": {
          "index": 10
        },
        "metallicFactor": 0.1,
        "roughnessFactor": 0.9
      },
      "name": "porte-2"
    },
    {
      "pbrMetallicRoughness": {
        "baseColorTexture": {
          "index": 11
        },
        "metallicFactor": 0.1,
        "roughnessFactor": 0.9
      },
      "name": "Material6"
    },
    {
      "pbrMetallicRoughness": {
        "baseColorTexture": {
          "index": 12
        },
        "metallicFactor": 0.1,
        "roughnessFactor": 0.9
      },
      "name": "Material7"
    },
    {
      "pbrMetallicRoughness": {
        "baseColorTexture": {
          "index": 13
        },
        "metallicFactor": 0.1,
        "roughnessFactor": 0.9
      },
      "name": "porte-4"
    },
    {
      "pbrMetallicRoughness": {
        "baseColorTexture": {
          "index": 14
        },
        "metallicFactor": 0.1,
        "roughnessFactor": 0.9
      },
      "name": "Material1",
      "doubleSided": true
    }
  ],
  "images": [
    {
      "bufferView": 0,
      "mimeType": "image/jpeg"
    },
    {
      "bufferView": 1,
      "mimeType": "image/jpeg"
    },
    {
      "bufferView": 2,
      "mimeType": "image/jpeg"
    },
    {
      "bufferView": 3,
      "mimeType": "image/jpeg"
    },
    {
      "bufferView": 4,
      "mimeType": "image/jpeg"
    },
    {
      "bufferView": 5,
      "mimeType": "image/jpeg"
    },
    {
      "bufferView": 6,
      "mimeType": "image/jpeg"
    },
    {
      "bufferView": 7,
      "mimeType": "image/jpeg"
    },
    {
      "bufferView": 8,
      "mimeType": "image/jpeg"
    },
    {
      "bufferView": 9,
      "mimeType": "image/jpeg"
    },
    {
      "bufferView": 10,
      "mimeType": "image/jpeg"
    },
    {
      "bufferView": 11,
      "mimeType": "image/jpeg"
    },
    {
      "bufferView": 12,
      "mimeType": "image/jpeg"
    },
    {
      "bufferView": 13,
      "mimeType": "image/jpeg"
    },
    {
      "bufferView": 14,
      "mimeType": "image/jpeg"
    }
  ],
  "textures": [
    {
      "source": 0,
      "sampler": 0
    },
    {
      "source": 1,
      "sampler": 0
    },
    {
      "source": 2,
      "sampler": 0
    },
    {
      "source": 3,
      "sampler": 0
    },
    {
      "source": 4,
      "sampler": 0
    },
    {
      "source": 5,
      "sampler": 0
    },
    {
      "source": 6,
      "sampler": 0
    },
    {
      "source": 7,
      "sampler": 0
    },
    {
      "source": 8,
      "sampler": 0
    },
    {
      "source": 9,
      "sampler": 0
    },
    {
      "source": 10,
      "sampler": 0
    },
    {
      "source": 11,
      "sampler": 0
    },
    {
      "source": 12,
      "sampler": 0
    },
    {
      "source": 13,
      "sampler": 0
    },
    {
      "source": 14,
      "sampler": 0
    }
  ],
  "meshes": [
    {
      "primitives": [
        {
          "attributes": {
            "POSITION": 2,
            "NORMAL": 3,
            "TEXCOORD_0": 4
          },
          "indices": 5,
          "mode": 4,
          "material": 0
        }
      ]
    },
    {
      "primitives": [
        {
          "attributes": {
            "POSITION": 0,
            "NORMAL": 1
          },
          "indices": 6,
          "mode": 4,
          "material": 2
        }
      ]
    },
    {
      "primitives": [
        {
          "attributes": {
            "POSITION": 0,
            "NORMAL": 1
          },
          "indices": 7,
          "mode": 4,
          "material": 2
        }
      ]
    },
    {
      "primitives": [
        {
          "attributes": {
            "POSITION": 0,
            "NORMAL": 1
          },
          "indices": 8,
          "mode": 4,
          "material": 2
        }
      ]
    },
    {
      "primitives": [
        {
          "attributes": {
            "POSITION": 0,
            "NORMAL": 1
          },
          "indices": 9,
          "mode": 4,
          "material": 2
        }
      ]
    },
    {
      "primitives": [
        {
          "attributes": {
            "POSITION": 2,
            "NORMAL": 3,
            "TEXCOORD_0": 4
          },
          "indices": 10,
          "mode": 4,
          "material": 0
        },
        {
          "attributes": {
            "POSITION": 2,
            "NORMAL": 3,
            "TEXCOORD_0": 4
          },
          "indices": 11,
          "mode": 4,
          "material": 1
        },
        {
          "attributes": {
            "POSITION": 2,
            "NORMAL": 3,
            "TEXCOORD_0": 4
          },
          "indices": 12,
          "mode": 4,
          "material": 3
        },
        {
          "attributes": {
            "POSITION": 0,
            "NORMAL": 1
          },
          "indices": 13,
          "mode": 4,
          "material": 4
        },
        {
          "attributes": {
            "POSITION": 2,
            "NORMAL": 3,
            "TEXCOORD_0": 4
          },
          "indices": 14,
          "mode": 4,
          "material": 5
        },
        {
          "attributes": {
            "POSITION": 2,
            "NORMAL": 3,
            "TEXCOORD_0": 4
          },
          "indices": 15,
          "mode": 4,
          "material": 6
        },
        {
          "attributes": {
            "POSITION": 2,
            "NORMAL": 3,
            "TEXCOORD_0": 4
          },
          "indices": 16,
          "mode": 4,
          "material": 7
        },
        {
          "attributes": {
            "POSITION": 2,
            "NORMAL": 3,
            "TEXCOORD_0": 4
          },
          "indices": 17,
          "mode": 4,
          "material": 8
        },
        {
          "attributes": {
            "POSITION": 2,
            "NORMAL": 3,
            "TEXCOORD_0": 4
          },
          "indices": 18,
          "mode": 4,
          "material": 9
        },
        {
          "attributes": {
            "POSITION": 2,
            "NORMAL": 3,
            "TEXCOORD_0": 4
          },
          "indices": 19,
          "mode": 4,
          "material": 10
        },
        {
          "attributes": {
            "POSITION": 2,
            "NORMAL": 3,
            "TEXCOORD_0": 4
          },
          "indices": 20,
          "mode": 4,
          "material": 11
        },
        {
          "attributes": {
            "POSITION": 2,
            "NORMAL": 3,
            "TEXCOORD_0": 4
          },
          "indices": 21,
          "mode": 4,
          "material": 12
        },
        {
          "attributes": {
            "POSITION": 2,
            "NORMAL": 3,
            "TEXCOORD_0": 4
          },
          "indices": 22,
          "mode": 4,
          "material": 13
        },
        {
          "attributes": {
            "POSITION": 2,
            "NORMAL": 3,
            "TEXCOORD_0": 4
          },
          "indices": 23,
          "mode": 4,
          "material": 14
        },
        {
          "attributes": {
            "POSITION": 2,
            "NORMAL": 3,
            "TEXCOORD_0": 4
          },
          "indices": 24,
          "mode": 4,
          "material": 15
        },
        {
          "attributes": {
            "POSITION": 2,
            "NORMAL": 3,
            "TEXCOORD_0": 4
          },
          "indices": 25,
          "mode": 4,
          "material": 16
        }
      ]
    }
  ],
  "accessors": [
    {
      "bufferView": 15,
      "componentType": 5126,
      "count": 1487,
      "type": "VEC3",
      "min": [
        -34.8066619838535,
        0.049999996242902495,
        -45.65017632685597
      ],
      "max": [
        69.32689668163172,
        74.0392387641943,
        42.75154863682108
      ]
    },
    {
      "bufferView": 16,
      "componentType": 5126,
      "count": 1487,
      "type": "VEC3",
      "min": [
        -0.9914684692215846,
        -1.0,
        -0.9914684692215847
      ],
      "max": [
        0.9914684692215847,
        1.0,
        0.9914684692215847
      ]
    },
    {
      "bufferView": 17,
      "componentType": 5126,
      "count": 1698,
      "type": "VEC3",
      "min": [
        -34.7932419437786,
        0.049999998102041684,
        -45.61530716590973
      ],
      "max": [
        72.05642548891818,
        68.63288335976898,
        49.332605269759874
      ]
    },
    {
      "bufferView": 18,
      "componentType": 5126,
      "count": 1698,
      "type": "VEC3",
      "min": [
        -0.9914684692215848,
        -0.9999999999999999,
        -0.9914684692215847
      ],
      "max": [
        0.9914684692215847,
        1.0,
        0.9914684692215846
      ]
    },
    {
      "bufferView": 19,
      "componentType": 5126,
      "count": 1698,
      "type": "VEC2",
      "min": [
        -71.30318668802325,
        -30.740994707182097
      ],
      "max": [
        71.30318668802303,
        21.67543826940576
      ]
    },
    {
      "bufferView": 21,
      "componentType": 5123,
      "count": 1584,
      "type": "SCALAR"
    },
    {
      "bufferView": 20,
      "componentType": 5123,
      "count": 1584,
      "type": "SCALAR"
    },
    {
      "bufferView": 20,
      "componentType": 5123,
      "count": 1584,
      "type": "SCALAR",
      "byteOffset": 3168
    },
    {
      "bufferView": 20,
      "componentType": 5123,
      "count": 1584,
      "type": "SCALAR",
      "byteOffset": 6336
    },
    {
      "bufferView": 20,
      "componentType": 5123,
      "count": 1584,
      "type": "SCALAR",
      "byteOffset": 9504
    },
    {
      "bufferView": 21,
      "componentType": 5123,
      "count": 180,
      "type": "SCALAR",
      "byteOffset": 3168
    },
    {
      "bufferView": 21,
      "componentType": 5123,
      "count": 24,
      "type": "SCALAR",
      "byteOffset": 3528
    },
    {
      "bufferView": 21,
      "componentType": 5123,
      "count": 204,
      "type": "SCALAR",
      "byteOffset": 3576
    },
    {
      "bufferView": 20,
      "componentType": 5123,
      "count": 720,
      "type": "SCALAR",
      "byteOffset": 12672
    },
    {
      "bufferView": 21,
      "componentType": 5123,
      "count": 24,
      "type": "SCALAR",
      "byteOffset": 3984
    },
    {
      "bufferView": 21,
      "componentType": 5123,
      "count": 6,
      "type": "SCALAR",
      "byteOffset": 4032
    },
    {
      "bufferView": 21,
      "componentType": 5123,
      "count": 9,
      "type": "SCALAR",
      "byteOffset": 4044
    },
    {
      "bufferView": 21,
      "componentType": 5123,
      "count": 48,
      "type": "SCALAR",
      "byteOffset": 4062
    },
    {
      "bufferView": 21,
      "componentType": 5123,
      "count": 24,
      "type": "SCALAR",
      "byteOffset": 4158
    },
    {
      "bufferView": 21,
      "componentType": 5123,
      "count": 24,
      "type": "SCALAR",
      "byteOffset": 4206
    },
    {
      "bufferView": 21,
      "componentType": 5123,
      "count": 159,
      "type": "SCALAR",
      "byteOffset": 4254
    },
    {
      "bufferView": 21,
      "componentType": 5123,
      "count": 48,
      "type": "SCALAR",
      "byteOffset": 4572
    },
    {
      "bufferView": 21,
      "componentType": 5123,
      "count": 36,
      "type": "SCALAR",
      "byteOffset": 4668
    },
    {
      "bufferView": 21,
      "componentType": 5123,
      "count": 63,
      "type": "SCALAR",
      "byteOffset": 4740
    },
    {
      "bufferView": 21,
      "componentType": 5123,
      "count": 18,
      "type": "SCALAR",
      "byteOffset": 4866
    },
    {
      "bufferView": 21,
      "componentType": 5123,
      "count": 30,
      "type": "SCALAR",
      "byteOffset": 4902
    }
  ],
  "bufferViews": [
    {
      "buffer": 0,
      "byteLength": 54530
    },
    {
      "buffer": 0,
      "byteOffset": 54530,
      "byteLength": 14596
    },
    {
      "buffer": 0,
      "byteOffset": 69126,
      "byteLength": 795
    },
    {
      "buffer": 0,
      "byteOffset": 69921,
      "byteLength": 14465
    },
    {
      "buffer": 0,
      "byteOffset": 84386,
      "byteLength": 17787
    },
    {
      "buffer": 0,
      "byteOffset": 102173,
      "byteLength": 484457
    },
    {
      "buffer": 0,
      "byteOffset": 586630,
      "byteLength": 35658
    },
    {
      "buffer": 0,
      "byteOffset": 622288,
      "byteLength": 89231
    },
    {
      "buffer": 0,
      "byteOffset": 711519,
      "byteLength": 36106
    },
    {
      "buffer": 0,
      "byteOffset": 747625,
      "byteLength": 226039
    },
    {
      "buffer": 0,
      "byteOffset": 973664,
      "byteLength": 49579
    },
    {
      "buffer": 0,
      "byteOffset": 1023243,
      "byteLength": 13707
    },
    {
      "buffer": 0,
      "byteOffset": 1036950,
      "byteLength": 13707
    },
    {
      "buffer": 0,
      "byteOffset": 1050657,
      "byteLength": 50739
    },
    {
      "buffer": 0,
      "byteOffset": 1101396,
      "byteLength": 14165
    },
    {
      "buffer": 0,
      "byteOffset": 1115568,
      "byteLength": 17844,
      "target": 34962,
      "byteStride": 12
    },
    {
      "buffer": 0,
      "byteOffset": 1133412,
      "byteLength": 17844,
      "target": 34962,
      "byteStride": 12
    },
    {
      "buffer": 0,
      "byteOffset": 1151256,
      "byteLength": 20376,
      "target": 34962,
      "byteStride": 12
    },
    {
      "buffer": 0,
      "byteOffset": 1171632,
      "byteLength": 20376,
      "target": 34962,
      "byteStride": 12
    },
    {
      "buffer": 0,
      "byteOffset": 1192008,
      "byteLength": 13584,
      "target": 34962,
      "byteStride": 8
    },
    {
      "buffer": 0,
      "byteOffset": 1205592,
      "byteLength": 14112,
      "target": 34963
    },
    {
      "buffer": 0,
      "byteOffset": 1219704,
      "byteLength": 4962,
      "target": 34963
    }
  ],
  "buffers": [
    {
      "uri": "data:application/octet-stream;base64,",
      "byteLength": 1224666
    }
  ]
}